<svg xmlns="http://www.w3.org/2000/svg" viewBox="0 0 110.2 122.66" width="132.966" height="148" preserveAspectRatio="xMinYMin" style="position:absolute;top:182.54px;left:221.017px">
  <path d="M102.82 25.28 62.43 1.96A14.7 14.7 0 0 0 55.08 0c-2.54 0-5.08.65-7.34 1.96L7.35 25.28A14.73 14.73 0 0 0 0 38v46.65c0 5.23 2.82 10.1 7.35 12.72l2.39 1.38.78.45 2.21 1.28.3.17.7.41.08.05.46.27.96.55 5.92 3.42 1.19.69.05.03 1.54.89 4.09 2.36 1.55.9 2.5 1.44 1.95 1.13.8.46 2 1.15 2.36 1.36.47.27 2.52 1.45 4.97 2.87.62.35c2.27 1.31 4.8 1.96 7.34 1.96s5.07-.65 7.34-1.96l.62-.35 4.97-2.87 2.52-1.45.47-.27 2.36-1.36 2-1.15.8-.46 1.95-1.13 2.5-1.44 1.55-.9 4.09-2.36 1.54-.89.05-.03 1.19-.69 5.92-3.42.96-.55.46-.27.08-.05.7-.41.3-.17 2.21-1.28.78-.45 2.39-1.38c4.53-2.62 7.35-7.49 7.35-12.72V38c0-5.23-2.82-10.1-7.35-12.72Zm-81.63 75.03c0 .29-.32.48-.58.33L16 97.98a.725.725 0 0 1-.23-1.05c1.73-2.41 3.37-4.87 4.92-7.36.17-.27.59-.15.59.17l-.09 10.58Zm6.87 3.94c0 .3-.33.49-.59.34L22.99 102a1.29 1.29 0 0 1-.64-1.1l-.11-11.03c-.02-1.79.44-3.56 1.32-5.12 1.47-2.6 2.85-5.24 4.14-7.91.15-.3.6-.2.6.14l-.23 27.27Zm6.81 3.28c0 .59-.65.96-1.16.66l-3.23-1.86c-.59-.34-.96-.97-.97-1.65l-.26-26.77c-.03-2.71.47-5.4 1.5-7.9 1.44-3.48 2.73-7 3.86-10.55.12-.37.67-.28.66.11l-.4 47.97Zm27.95 6.01a4.59 4.59 0 0 1-2.29 3.85 10.87 10.87 0 0 1-5.44 1.45c-1.88 0-3.76-.48-5.44-1.45a4.59 4.59 0 0 1-2.29-3.85l-.31-12c-.05-2.27 1.76-4.14 4.03-4.14h8.01a4.03 4.03 0 0 1 4.03 4.14l-.31 12Zm.7-27.51a4.03 4.03 0 0 1-4.03 3.93h-8.8a4.03 4.03 0 0 1-4.03-3.93L46.38 75a3.26 3.26 0 0 1 3.26-3.34h10.9A3.26 3.26 0 0 1 63.8 75zm.61-24.04a4.024 4.024 0 0 1-4.03 3.93H50.09c-2.19 0-3.98-1.74-4.03-3.93l-.22-8.82a3.07 3.07 0 0 1 3.07-3.15H61.3a3.07 3.07 0 0 1 3.07 3.15l-.22 8.82Zm.5-19.85a3.067 3.067 0 0 1-3.07 2.99H48.62c-1.66 0-3.03-1.33-3.07-2.99l-.24-9.39c-.03-1.2.93-2.19 2.14-2.19h15.28c1.2 0 2.17.99 2.14 2.19zm16.03 62.53a1.9 1.9 0 0 1-.97 1.65l-3.23 1.86c-.51.3-1.15-.07-1.16-.66l-.4-47.97c0-.39.54-.48.66-.11 1.13 3.56 2.42 7.08 3.86 10.55 1.04 2.5 1.53 5.19 1.5 7.9l-.26 26.77Zm7.18-3.78c0 .46-.25.87-.64 1.1l-4.48 2.59a.395.395 0 0 1-.59-.34l-.23-27.27c0-.34.45-.44.6-.14 1.29 2.67 2.67 5.31 4.14 7.91.88 1.56 1.34 3.33 1.32 5.12l-.11 11.03Zm6.33-2.92-4.61 2.66c-.25.15-.57-.04-.58-.33l-.09-10.58c0-.32.42-.44.59-.17 1.55 2.49 3.19 4.95 4.92 7.36.25.35.15.84-.23 1.05Zm12.2-13.33c0 3.89-2.08 7.48-5.44 9.43-1.66.96-3.77.52-4.9-1.02-16.42-22.34-25.19-48.57-25.69-74.79 0-.23-.19-.41-.42-.41s-.42.19-.43.42c-.19 10.75 1.01 21.54 3.55 32.1.6 2.5.91 5.06.89 7.63l-.51 51.52c0 .27-.15.53-.39.66l-1.77 1.02a.573.573 0 0 1-.86-.48l-2.31-91.47c-.02-.78-.66-1.4-1.44-1.4-.39 0-.74.16-1 .41s-.42.6-.43.99l-.14 5.57a2.137 2.137 0 0 1-2.14 2.08H47.26c-1.16 0-2.11-.92-2.14-2.08l-.14-5.57c-.01-.39-.17-.74-.43-.99s-.62-.41-1-.41c-.78 0-1.41.62-1.44 1.4l-2.31 91.47c-.01.43-.48.7-.86.48l-1.77-1.02a.79.79 0 0 1-.39-.66L36.27 58c-.03-2.57.29-5.13.89-7.63 2.54-10.56 3.74-21.34 3.55-32.1 0-.23-.19-.42-.43-.42s-.42.19-.42.41c-.5 26.22-9.28 52.45-25.69 74.79-1.13 1.54-3.25 1.97-4.9 1.02a10.88 10.88 0 0 1-5.44-9.43V38c0-3.88 2.09-7.49 5.45-9.43L49.64 5.25c1.68-.97 3.56-1.45 5.44-1.45s3.76.48 5.44 1.45l40.4 23.32a10.92 10.92 0 0 1 5.45 9.43v46.65Z" fill="#EEE"/>
</svg>
