<svg xmlns="http://www.w3.org/2000/svg" viewBox="0 0 5000 6000">
  <path fill="#343C40" d="M1470.793 2017.477 777.852 3225.99c97.646-32.879 206.735-64.256 323.799-93.645l369.143-906.145v-123.544l42.344-152.927zM393.782 3397.849 1470.793 1676.75v-211.22l143.462-126.552v904.161l-357.177 853.336-20.412 48.822-9.971 24.416 105.098 221.172-169.359-144.969c-269.001 59.789-546.973 137.494-862.301 234.145 19.923-26.907 51.812-54.306 93.649-82.212m1077.011-1670.286L445.084 3366.978c76.222-43.344 176.346-86.191 293.915-127.539l731.794-1275.759v-150.943l42.344-152.926zm1323.582 1247.364c71.248 4.486 142.979 10.459 213.715 17.93l312.34-766.657v-87.169l42.348-152.933-19.924 31.378zm-225.659-9.969c65.258 1.012 130.514 3.996 195.275 7.98l556.438-969.901v-153.944l42.348-152.926-42.348 67.746-751.713 1201.042zm948.983-884.214 641.117 1151.236c114.596 38.854 212.691 79.695 290.43 121.049l-931.547-1519.368v-49.317l979.848 1595.572c56.293 33.879 98.152 67.264 122.59 100.148-313.891-96.146-591.328-173.361-858.34-233.645l-81.195 144.467 18.924-157.91c-174.357-37.369-345.725-67.258-521.076-90.172l51.32-123.037c161.402 22.406 317.824 51.307 464.275 83.68l-219.689-525.549 48.316-120.048h52.809l261.037 655.06-11.965 21.426c106.604 26.404 206.268 54.797 296.889 84.691L3517.699 2133.04zm-54.309-741.765v904.161l-319.814 765.154-51.807 124.051h-.488l-7.98 19.436 68.258 218.184-211.727-209.715 17.445-41.859c-158.412-14.943-322.309-24.408-497.154-28.387-166.882 3.979-323.811 12.955-474.747 26.396l-153.927 274.486 29.389-248.588-5.469-12.943c-179.348 19.93-352.204 46.822-527.049 81.201l-11.454-38.363 39.848-96.146c142.962-28.393 292.903-52.295 446.342-71.223l-178.342-426.926 48.317-120.047h52.808l212.209 532.022a5973 5973 0 0 1 233.133-17.928l-503.123-838.905v-52.296l533.023 889.693c67.245-3.473 134.503-5.967 201.749-6.473l-734.772-1130.302v-49.318l766.655 1179.125h25.41c25.409 0 51.3 0 77.216.496l783.09-1250.863v-247.57z"/>
  <text
    x="2500" 
    y="4100"  
    text-anchor="middle"
    font-family="Cinzel"
    font-size="550"
    fill="#343C40"
  >
    Seismic Ye Group
  </text>
  <text
    x="2500"
    y="4600"
    text-anchor="middle"
    font-family="Arial, sans-serif"
    font-size="250"
    fill="#343C40"
  >
    Towards Next-Generation Resilient Bridges
  </text>
</svg>
